# xmcd
#
# Track frame offsets:
#	150
#	22026
#	36897
#	55423
#	68651
#	85272
#	103018
#	122634
#	137266
#	155938
#	175020
#	189140
#
# Disc length: 2710 seconds
#
# Revision: 0
# Processed by: cddbd v1.5.2PL0 Copyright (c) Steve Scherf et al.
# Submitted via: audiograbber 1.83.01
#
DISCID=9a0a940c
DTITLE=The Hollies - The Best Of The Hollies
DYEAR=1975
DGENRE=Rock
TTITLE0=Write On
TTITLE1=Long Cool Woman in a Black Dress
TTITLE2=Sandy
TTITLE3=Carrie Anne
TTITLE4=Star
TTITLE5=Too Young to Be Married
TTITLE6=He Ain't Heavy, He's My Brother
TTITLE7=On a Carousel
TTITLE8=The Air That I Breathe
TTITLE9=I'm Down
TTITLE10=King Midas in Reverse
TTITLE11=Jennifer Eccles
EXTD=
EXTT0=
EXTT1=
EXTT2=
EXTT3=
EXTT4=
EXTT5=
EXTT6=
EXTT7=
EXTT8=
EXTT9=
EXTT10=
EXTT11=
PLAYORDER=
